<svg xmlns="http://www.w3.org/2000/svg" xmlns:xlink="http://www.w3.org/1999/xlink" width="1920" zoomAndPan="magnify" viewBox="0 0 1440 809.999993" height="1080" preserveAspectRatio="xMidYMid meet" version="1.0"><defs><filter x="0%" y="0%" width="100%" height="100%" id="b53ff71c1e"><feColorMatrix values="0 0 0 0 1 0 0 0 0 1 0 0 0 0 1 0 0 0 1 0" color-interpolation-filters="sRGB"/></filter><mask id="b3dde42e06"><g filter="url(#b53ff71c1e)"><rect x="-144" width="1728" fill="#000000" y="-80.999999" height="971.999992" fill-opacity="0.7098"/></g></mask><clipPath id="391d27ad79"><path d="M 0 11 L 520 11 L 520 732 L 0 732 Z M 0 11 " clip-rule="nonzero"/></clipPath><clipPath id="1175664a19"><path d="M 0 3 L 526 3 L 526 732 L 0 732 Z M 0 3 " clip-rule="nonzero"/></clipPath><clipPath id="7400c3331e"><rect x="0" width="528" y="0" height="732"/></clipPath><mask id="d1ab9a4017"><g filter="url(#b53ff71c1e)"><rect x="-144" width="1728" fill="#000000" y="-80.999999" height="971.999992" fill-opacity="0.3569"/></g></mask><clipPath id="8390ea841d"><path d="M 8 11 L 528 11 L 528 732 L 8 732 Z M 8 11 " clip-rule="nonzero"/></clipPath><clipPath id="ecb2b15c24"><path d="M 2 3 L 528 3 L 528 732 L 2 732 Z M 2 3 " clip-rule="nonzero"/></clipPath><clipPath id="d1908afbbb"><rect x="0" width="528" y="0" height="732"/></clipPath></defs><rect x="-144" width="1728" fill="#ffffff" y="-80.999999" height="971.999992" fill-opacity="1"/><rect x="-144" width="1728" fill="#ffffff" y="-80.999999" height="971.999992" fill-opacity="1"/><rect x="-144" width="1728" fill="#efe5db" y="-80.999999" height="971.999992" fill-opacity="1"/><g mask="url(#b3dde42e06)"><g transform="matrix(1, 0, 0, 1, 0, 78)"><g clip-path="url(#7400c3331e)"><g clip-path="url(#391d27ad79)"><path fill="#d6d1c7" d="M -188.125 1227.269531 C -188.125 1244.222656 -174.386719 1257.96875 -157.441406 1257.96875 L 488.585938 1257.96875 C 505.53125 1257.96875 519.269531 1244.222656 519.269531 1227.269531 C 519.269531 1210.316406 505.53125 1196.570312 488.585938 1196.570312 L -157.441406 1196.570312 C -174.386719 1196.539062 -188.125 1210.285156 -188.125 1227.269531 Z M -162.953125 1146.300781 L -162.953125 1146.269531 C -162.953125 1128.628906 -154.261719 1112.269531 -140.058594 1103.261719 L -84.269531 1051.339844 C -44.519531 1014.347656 -20.503906 961.675781 -17.730469 905.390625 L 359.15625 903.738281 C 359.15625 963.203125 382.957031 1019.800781 424.542969 1059.289062 L 471.175781 1103.574219 C 485.378906 1112.582031 494.070312 1128.910156 494.070312 1146.582031 C 494.070312 1174.195312 473.136719 1196.570312 447.3125 1196.570312 L -116.226562 1196.324219 C -142.019531 1196.292969 -162.953125 1173.914062 -162.953125 1146.300781 Z M -32.652344 843.308594 L -37.480469 843.308594 C -37.480469 843.308594 -11.25 803.542969 3.015625 742.050781 L -3.027344 709.328125 C -15.238281 682.652344 -41.746094 685.734375 -41.746094 685.734375 C -41.746094 659.089844 -50.5625 633.597656 -61.746094 601.308594 C -77.789062 554.933594 -97.757812 497.183594 -97.757812 413.660156 C -97.757812 262.789062 22.171875 101.007812 67 57.71875 C 73.914062 50.582031 93.132812 31.414062 117.929688 11.9375 L 163.035156 38.582031 C 160.074219 40.703125 157.179688 42.851562 154.3125 45.035156 L 163.6875 38.957031 L 163.035156 38.582031 C 179.730469 26.675781 197.796875 16.082031 214.277344 11.375 C 207.363281 47.183594 217.984375 69.902344 217.984375 69.902344 C 229.976562 86.859375 290.9375 111.511719 335.265625 150.777344 C 363.675781 175.960938 441.394531 239.070312 493.539062 281.175781 C 522.230469 304.332031 525.46875 341.761719 501.046875 368.128906 C 477 394.089844 433.542969 401.289062 399.589844 384.675781 C 379 374.609375 356.480469 365.507812 338.941406 363.328125 C 295.546875 357.9375 267.824219 371.804688 232.71875 357.9375 C 197.613281 344.066406 170.855469 309.410156 170.855469 309.410156 C 170.855469 451.777344 425.632812 518.128906 425.632812 704.527344 C 425.632812 802.359375 360.464844 843.308594 360.464844 843.308594 L 370.058594 843.308594 C 386.726562 843.308594 400.277344 856.835938 400.277344 873.539062 C 400.277344 890.246094 386.757812 903.769531 370.058594 903.769531 L -32.683594 903.769531 C -49.347656 903.769531 -62.898438 890.246094 -62.898438 873.539062 C -62.898438 856.835938 -49.316406 843.308594 -32.652344 843.308594 Z M -32.652344 843.308594 " fill-opacity="1" fill-rule="nonzero"/></g><g clip-path="url(#1175664a19)"><path fill="#efe5db" d="M -38.976562 191.574219 C -4.679688 129.210938 36.253906 76.605469 61.453125 52.265625 C 68.648438 44.847656 88.085938 25.460938 113.164062 5.765625 C 115.6875 3.769531 119.175781 3.550781 121.917969 5.171875 L 162.691406 29.265625 C 178.828125 18.136719 196.117188 8.414062 212.160156 3.832031 C 214.777344 3.085938 217.578125 3.738281 219.574219 5.578125 C 221.566406 7.417969 222.46875 10.128906 221.972656 12.808594 C 216.269531 42.292969 223.375 62.269531 224.804688 65.945312 C 229.976562 72.460938 246.425781 82.183594 263.804688 92.4375 C 287.136719 106.210938 316.171875 123.351562 340.46875 144.886719 C 369.5 170.632812 451.921875 237.480469 498.460938 275.066406 C 514.285156 287.84375 523.726562 305.078125 525.0625 323.59375 C 526.371094 341.574219 519.863281 359.246094 506.777344 373.363281 C 480.488281 401.722656 432.953125 409.609375 396.195312 391.625 C 371.835938 379.722656 352.242188 372.800781 338.007812 371.027344 C 320.5625 368.84375 305.796875 369.933594 291.53125 370.964844 C 271.15625 372.460938 251.9375 373.832031 229.914062 365.136719 C 209.976562 357.25 192.785156 343.289062 181.039062 331.945312 C 192.097656 384.332031 240.132812 427.589844 290.65625 473.03125 C 357.601562 533.242188 433.449219 601.527344 433.449219 704.464844 C 433.449219 805.441406 367.445312 848.078125 364.640625 849.824219 C 363.394531 850.601562 361.960938 851.007812 360.496094 851.007812 L -37.480469 851.007812 C -40.347656 851.007812 -42.992188 849.417969 -44.332031 846.894531 C -45.703125 844.367188 -45.546875 841.316406 -43.960938 838.914062 C -43.617188 838.386719 -18.632812 799.957031 -4.773438 741.023438 C -4.929688 722.449219 -9.382812 709.015625 -18.105469 701.132812 C -28.042969 692.15625 -40.75 693.308594 -40.8125 693.339844 C -43.023438 693.589844 -45.238281 692.902344 -46.886719 691.410156 C -48.539062 689.945312 -49.503906 687.824219 -49.503906 685.582031 C -49.503906 660.242188 -58.132812 635.308594 -69.066406 603.707031 C -85.296875 556.773438 -105.511719 498.367188 -105.511719 413.535156 C -105.511719 330.105469 -69.347656 246.769531 -38.976562 191.574219 Z M 358.128906 835.519531 C 368.410156 828.257812 417.90625 788.800781 417.90625 704.527344 C 417.90625 608.539062 347.945312 545.585938 280.253906 484.6875 C 220.007812 430.488281 163.128906 379.285156 163.128906 309.410156 C 163.128906 306.078125 165.246094 303.117188 168.394531 302.054688 C 171.539062 300.996094 175.027344 302.023438 177.082031 304.644531 C 177.332031 304.984375 203.0625 337.804688 235.675781 350.707031 C 254.398438 358.09375 271.125 356.90625 290.441406 355.472656 C 304.769531 354.445312 321.03125 353.261719 339.96875 355.597656 C 355.917969 357.59375 377.164062 365.011719 403.078125 377.664062 C 433.917969 392.71875 473.605469 386.328125 495.410156 362.796875 C 505.53125 351.859375 510.546875 338.363281 509.582031 324.746094 C 508.554688 310.566406 501.140625 297.226562 488.742188 287.222656 C 431.769531 241.222656 358.003906 181.226562 330.1875 156.574219 C 307.011719 136.039062 278.695312 119.300781 255.957031 105.867188 C 234.058594 92.933594 218.265625 83.585938 211.722656 74.359375 C 211.441406 73.988281 211.222656 73.582031 211.007812 73.144531 C 210.601562 72.242188 201.941406 53.292969 204.808594 23.03125 C 193.5 27.894531 167.425781 46.0625 165.371094 46.5 C 135 68.59375 109.519531 94.867188 109.113281 95.273438 C 109.050781 95.367188 108.957031 95.429688 108.863281 95.492188 C 72.136719 130.488281 -34.425781 273.695312 -34.425781 401.164062 C -34.425781 472.8125 -17.480469 521.742188 -2.558594 564.90625 C 9.464844 599.65625 19.835938 629.667969 19.835938 664.792969 C 19.835938 746.320312 -9.789062 809.898438 -23.835938 835.457031 L 358.128906 835.457031 Z M -54.332031 598.753906 C -43.960938 628.703125 -35.578125 652.949219 -34.148438 678.101562 C -27.136719 678.847656 -16.921875 681.433594 -7.917969 689.476562 C -3.929688 693.027344 -0.660156 697.328125 2.050781 702.191406 C 3.453125 690.253906 4.261719 677.789062 4.261719 664.855469 C 4.261719 632.351562 -5.738281 603.492188 -17.292969 570.082031 C -32.621094 525.730469 -50.003906 475.492188 -50.003906 401.226562 C -50.003906 268.863281 59.925781 120.765625 97.992188 84.394531 C 100.296875 82.027344 121.730469 60.085938 148.953125 39.300781 L 118.613281 21.378906 C 96.3125 39.300781 79.179688 56.410156 72.449219 63.328125 C 29.089844 105.183594 -89.9375 265.996094 -89.9375 413.691406 C -89.9375 495.875 -70.21875 552.910156 -54.332031 598.753906 Z M -54.332031 598.753906 " fill-opacity="1" fill-rule="nonzero"/></g><path fill="#efe5db" d="M 310.90625 207.46875 C 309.691406 213.171875 297.945312 210.992188 287.699219 208.25 C 277.449219 205.503906 271.6875 200.644531 271.875 193.101562 C 272.03125 187.273438 276.796875 180.511719 287.011719 183.253906 C 297.292969 185.964844 312.835938 198.273438 310.90625 207.46875 Z M 310.90625 207.46875 " fill-opacity="1" fill-rule="nonzero"/><path fill="#efe5db" d="M 479.804688 327.207031 C 484.101562 327.207031 487.589844 323.714844 487.589844 319.414062 C 487.589844 305.015625 470.457031 298.878906 468.496094 298.253906 C 464.414062 296.882812 459.992188 299.097656 458.652344 303.179688 C 457.28125 307.261719 459.492188 311.65625 463.542969 313.027344 C 467.375 314.335938 472.015625 317.484375 472.015625 319.414062 C 472.015625 323.714844 475.503906 327.207031 479.804688 327.207031 Z M 479.804688 327.207031 " fill-opacity="1" fill-rule="nonzero"/></g></g></g><g mask="url(#d1ab9a4017)"><g transform="matrix(1, 0, 0, 1, 912, 78)"><g clip-path="url(#d1908afbbb)"><g clip-path="url(#8390ea841d)"><path fill="#ad7b48" d="M 716.121094 1227.269531 C 716.121094 1244.222656 702.382812 1257.96875 685.4375 1257.96875 L 39.410156 1257.96875 C 22.464844 1257.96875 8.726562 1244.222656 8.726562 1227.269531 C 8.726562 1210.316406 22.464844 1196.570312 39.410156 1196.570312 L 685.4375 1196.570312 C 702.382812 1196.539062 716.121094 1210.285156 716.121094 1227.269531 Z M 690.949219 1146.300781 L 690.949219 1146.269531 C 690.949219 1128.628906 682.261719 1112.269531 668.054688 1103.261719 L 612.265625 1051.339844 C 572.515625 1014.347656 548.5 961.675781 545.726562 905.390625 L 168.839844 903.738281 C 168.839844 963.203125 145.039062 1019.800781 103.453125 1059.289062 L 56.824219 1103.574219 C 42.617188 1112.582031 33.925781 1128.910156 33.925781 1146.582031 C 33.925781 1174.195312 54.859375 1196.570312 80.683594 1196.570312 L 644.226562 1196.324219 C 670.019531 1196.292969 690.949219 1173.914062 690.949219 1146.300781 Z M 560.648438 843.308594 L 565.476562 843.308594 C 565.476562 843.308594 539.25 803.542969 524.980469 742.050781 L 531.023438 709.328125 C 543.234375 682.652344 569.746094 685.734375 569.746094 685.734375 C 569.746094 659.089844 578.558594 633.597656 589.742188 601.308594 C 605.785156 554.933594 625.753906 497.183594 625.753906 413.660156 C 625.753906 262.789062 505.824219 101.007812 461 57.71875 C 454.082031 50.582031 434.863281 31.414062 410.066406 11.9375 L 364.960938 38.582031 C 367.921875 40.703125 370.820312 42.851562 373.683594 45.035156 L 364.308594 38.957031 L 364.960938 38.582031 C 348.265625 26.675781 330.199219 16.082031 313.71875 11.375 C 320.636719 47.183594 310.011719 69.902344 310.011719 69.902344 C 298.019531 86.859375 237.058594 111.511719 192.730469 150.777344 C 164.324219 175.960938 86.601562 239.070312 34.457031 281.175781 C 5.765625 304.332031 2.527344 341.761719 26.949219 368.128906 C 50.996094 394.089844 94.453125 401.289062 128.40625 384.675781 C 148.996094 374.609375 171.519531 365.507812 189.054688 363.328125 C 232.449219 357.9375 260.171875 371.804688 295.277344 357.9375 C 330.386719 344.066406 357.144531 309.410156 357.144531 309.410156 C 357.144531 451.777344 102.363281 518.128906 102.363281 704.527344 C 102.363281 802.359375 167.53125 843.308594 167.53125 843.308594 L 157.9375 843.308594 C 141.269531 843.308594 127.722656 856.835938 127.722656 873.539062 C 127.722656 890.246094 141.242188 903.769531 157.9375 903.769531 L 560.679688 903.769531 C 577.34375 903.769531 590.894531 890.246094 590.894531 873.539062 C 590.894531 856.835938 577.3125 843.308594 560.648438 843.308594 Z M 560.648438 843.308594 " fill-opacity="1" fill-rule="nonzero"/></g><g clip-path="url(#ecb2b15c24)"><path fill="#efe5db" d="M 566.972656 191.574219 C 532.675781 129.210938 491.746094 76.605469 466.542969 52.265625 C 459.347656 44.847656 439.910156 25.460938 414.832031 5.765625 C 412.3125 3.769531 408.820312 3.550781 406.082031 5.171875 L 365.304688 29.265625 C 349.167969 18.136719 331.878906 8.414062 315.839844 3.832031 C 313.222656 3.085938 310.417969 3.738281 308.425781 5.578125 C 306.429688 7.417969 305.527344 10.128906 306.027344 12.808594 C 311.726562 42.292969 304.625 62.269531 303.191406 65.945312 C 298.019531 72.460938 281.574219 82.183594 264.191406 92.4375 C 240.859375 106.210938 211.828125 123.351562 187.53125 144.886719 C 158.496094 170.632812 76.074219 237.480469 29.535156 275.066406 C 13.710938 287.84375 4.273438 305.078125 2.933594 323.59375 C 1.625 341.574219 8.136719 359.246094 21.21875 373.363281 C 47.507812 401.722656 95.042969 409.609375 131.800781 391.625 C 156.160156 379.722656 175.753906 372.800781 189.992188 371.027344 C 207.433594 368.84375 222.199219 369.933594 236.46875 370.964844 C 256.839844 372.460938 276.058594 373.832031 298.082031 365.136719 C 318.019531 357.25 335.214844 343.289062 346.957031 331.945312 C 335.898438 384.332031 287.863281 427.589844 237.339844 473.03125 C 170.398438 533.242188 94.546875 601.527344 94.546875 704.464844 C 94.546875 805.441406 160.554688 848.078125 163.355469 849.824219 C 164.601562 850.601562 166.035156 851.007812 167.5 851.007812 L 565.476562 851.007812 C 568.34375 851.007812 570.992188 849.417969 572.332031 846.894531 C 573.699219 844.367188 573.546875 841.316406 571.957031 838.914062 C 571.613281 838.386719 546.632812 799.957031 532.769531 741.023438 C 532.925781 722.449219 537.378906 709.015625 546.101562 701.132812 C 556.039062 692.15625 568.746094 693.308594 568.808594 693.339844 C 571.023438 693.589844 573.234375 692.902344 574.882812 691.410156 C 576.535156 689.945312 577.5 687.824219 577.5 685.582031 C 577.5 660.242188 586.128906 635.308594 597.0625 603.707031 C 613.292969 556.773438 633.507812 498.367188 633.507812 413.535156 C 633.507812 330.105469 597.34375 246.769531 566.972656 191.574219 Z M 169.867188 835.519531 C 159.585938 828.257812 110.089844 788.800781 110.089844 704.527344 C 110.089844 608.539062 180.054688 545.585938 247.742188 484.6875 C 307.988281 430.488281 364.867188 379.285156 364.867188 309.410156 C 364.867188 306.078125 362.75 303.117188 359.605469 302.054688 C 356.457031 300.996094 352.96875 302.023438 350.914062 304.644531 C 350.664062 304.984375 324.933594 337.804688 292.320312 350.707031 C 273.597656 358.09375 256.871094 356.90625 237.558594 355.472656 C 223.226562 354.445312 206.96875 353.261719 188.027344 355.597656 C 172.078125 357.59375 150.835938 365.011719 124.917969 377.664062 C 94.078125 392.71875 54.394531 386.328125 32.585938 362.796875 C 22.464844 351.859375 17.449219 338.363281 18.414062 324.746094 C 19.441406 310.566406 26.855469 297.226562 39.253906 287.222656 C 96.226562 241.222656 169.992188 181.226562 197.808594 156.574219 C 220.984375 136.039062 249.300781 119.300781 272.039062 105.867188 C 293.9375 92.933594 309.734375 83.585938 316.273438 74.359375 C 316.554688 73.988281 316.773438 73.582031 316.992188 73.144531 C 317.394531 72.242188 326.054688 53.292969 323.191406 23.03125 C 334.496094 27.894531 360.570312 46.0625 362.625 46.5 C 392.996094 68.59375 418.476562 94.867188 418.882812 95.273438 C 418.945312 95.367188 419.039062 95.429688 419.132812 95.492188 C 455.859375 130.488281 562.425781 273.695312 562.425781 401.164062 C 562.425781 472.8125 545.476562 521.742188 530.558594 564.90625 C 518.535156 599.65625 508.160156 629.667969 508.160156 664.792969 C 508.160156 746.320312 537.785156 809.898438 551.832031 835.457031 L 169.867188 835.457031 Z M 582.328125 598.753906 C 571.957031 628.703125 563.578125 652.949219 562.144531 678.101562 C 555.136719 678.847656 544.917969 681.433594 535.914062 689.476562 C 531.929688 693.027344 528.65625 697.328125 525.949219 702.191406 C 524.546875 690.253906 523.734375 677.789062 523.734375 664.855469 C 523.734375 632.351562 533.734375 603.492188 545.292969 570.082031 C 560.617188 525.730469 578 475.492188 578 401.226562 C 578 268.863281 468.070312 120.765625 430.003906 84.394531 C 427.699219 82.027344 406.269531 60.085938 379.042969 39.300781 L 409.382812 21.378906 C 431.6875 39.300781 448.820312 56.410156 455.546875 63.328125 C 498.910156 105.183594 617.933594 265.996094 617.933594 413.691406 C 617.933594 495.875 598.214844 552.910156 582.328125 598.753906 Z M 582.328125 598.753906 " fill-opacity="1" fill-rule="nonzero"/></g><path fill="#efe5db" d="M 217.089844 207.46875 C 218.304688 213.171875 230.050781 210.992188 240.296875 208.25 C 250.546875 205.503906 256.308594 200.644531 256.121094 193.101562 C 255.96875 187.273438 251.199219 180.511719 240.984375 183.253906 C 230.703125 185.964844 215.160156 198.273438 217.089844 207.46875 Z M 217.089844 207.46875 " fill-opacity="1" fill-rule="nonzero"/><path fill="#efe5db" d="M 48.195312 327.207031 C 43.894531 327.207031 40.40625 323.714844 40.40625 319.414062 C 40.40625 305.015625 57.539062 298.878906 59.5 298.253906 C 63.582031 296.882812 68.003906 299.097656 69.34375 303.179688 C 70.714844 307.261719 68.503906 311.65625 64.453125 313.027344 C 60.625 314.335938 55.980469 317.484375 55.980469 319.414062 C 55.980469 323.714844 52.492188 327.207031 48.195312 327.207031 Z M 48.195312 327.207031 " fill-opacity="1" fill-rule="nonzero"/></g></g></g></svg>